<mxfile host="app.diagrams.net" agent="Mozilla/5.0 (Windows NT 10.0; Win64; x64) AppleWebKit/537.36 (KHTML, like Gecko) Chrome/128.0.0.0 Safari/537.36" version="24.7.8">
  <diagram name="Página-1" id="ZsdENeM_krLo-d6OBcX1">
    <mxGraphModel dx="1509" dy="777" grid="1" gridSize="10" guides="1" tooltips="1" connect="1" arrows="1" fold="1" page="1" pageScale="1" pageWidth="1169" pageHeight="827" math="0" shadow="0">
      <root>
        <mxCell id="0" />
        <mxCell id="1" parent="0" />
        <mxCell id="Aci5EPnE0_aUWg7GJw90-18" style="edgeStyle=orthogonalEdgeStyle;rounded=0;orthogonalLoop=1;jettySize=auto;html=1;exitX=0.5;exitY=1;exitDx=0;exitDy=0;entryX=0.5;entryY=0;entryDx=0;entryDy=0;" edge="1" parent="1" source="Aci5EPnE0_aUWg7GJw90-1" target="Aci5EPnE0_aUWg7GJw90-2">
          <mxGeometry relative="1" as="geometry" />
        </mxCell>
        <mxCell id="Aci5EPnE0_aUWg7GJw90-1" value="INICIO" style="ellipse;whiteSpace=wrap;html=1;" vertex="1" parent="1">
          <mxGeometry x="525" width="120" height="50" as="geometry" />
        </mxCell>
        <mxCell id="Aci5EPnE0_aUWg7GJw90-66" style="edgeStyle=orthogonalEdgeStyle;rounded=0;orthogonalLoop=1;jettySize=auto;html=1;exitX=0.5;exitY=1;exitDx=0;exitDy=0;entryX=0.5;entryY=0;entryDx=0;entryDy=0;" edge="1" parent="1" source="Aci5EPnE0_aUWg7GJw90-2" target="Aci5EPnE0_aUWg7GJw90-41">
          <mxGeometry relative="1" as="geometry" />
        </mxCell>
        <mxCell id="Aci5EPnE0_aUWg7GJw90-2" value="numero_uno&lt;div&gt;numero_dos&lt;/div&gt;&lt;div&gt;intentos = 0&lt;/div&gt;&lt;div&gt;&lt;span style=&quot;background-color: initial;&quot;&gt;intentos_max = 3&lt;/span&gt;&lt;/div&gt;&lt;div&gt;jugar = 1&lt;/div&gt;&lt;div&gt;ganador = 0&lt;/div&gt;" style="rounded=0;whiteSpace=wrap;html=1;align=left;spacingLeft=10;" vertex="1" parent="1">
          <mxGeometry x="525" y="60" width="120" height="130" as="geometry" />
        </mxCell>
        <mxCell id="Aci5EPnE0_aUWg7GJw90-80" style="edgeStyle=orthogonalEdgeStyle;rounded=0;orthogonalLoop=1;jettySize=auto;html=1;exitX=0.5;exitY=1;exitDx=0;exitDy=0;entryX=0.5;entryY=0;entryDx=0;entryDy=0;" edge="1" parent="1" source="Aci5EPnE0_aUWg7GJw90-4" target="Aci5EPnE0_aUWg7GJw90-79">
          <mxGeometry relative="1" as="geometry" />
        </mxCell>
        <mxCell id="Aci5EPnE0_aUWg7GJw90-4" value="numero_uno" style="shape=parallelogram;perimeter=parallelogramPerimeter;whiteSpace=wrap;html=1;fixedSize=1;" vertex="1" parent="1">
          <mxGeometry x="766.5" y="290" width="120" height="50" as="geometry" />
        </mxCell>
        <mxCell id="Aci5EPnE0_aUWg7GJw90-22" style="edgeStyle=orthogonalEdgeStyle;rounded=0;orthogonalLoop=1;jettySize=auto;html=1;exitX=0.5;exitY=1;exitDx=0;exitDy=0;entryX=0.5;entryY=0;entryDx=0;entryDy=0;" edge="1" parent="1" source="Aci5EPnE0_aUWg7GJw90-5" target="Aci5EPnE0_aUWg7GJw90-6">
          <mxGeometry relative="1" as="geometry" />
        </mxCell>
        <mxCell id="Aci5EPnE0_aUWg7GJw90-5" value="numero_dos" style="shape=parallelogram;perimeter=parallelogramPerimeter;whiteSpace=wrap;html=1;fixedSize=1;" vertex="1" parent="1">
          <mxGeometry x="1312" y="677" width="120" height="50" as="geometry" />
        </mxCell>
        <mxCell id="Aci5EPnE0_aUWg7GJw90-27" style="edgeStyle=orthogonalEdgeStyle;rounded=0;orthogonalLoop=1;jettySize=auto;html=1;exitX=0;exitY=0.5;exitDx=0;exitDy=0;entryX=0.5;entryY=0;entryDx=0;entryDy=0;" edge="1" parent="1" source="Aci5EPnE0_aUWg7GJw90-6" target="Aci5EPnE0_aUWg7GJw90-13">
          <mxGeometry relative="1" as="geometry" />
        </mxCell>
        <mxCell id="Aci5EPnE0_aUWg7GJw90-76" value="NO" style="edgeLabel;html=1;align=center;verticalAlign=middle;resizable=0;points=[];" vertex="1" connectable="0" parent="Aci5EPnE0_aUWg7GJw90-27">
          <mxGeometry x="-0.4835" y="-2" relative="1" as="geometry">
            <mxPoint as="offset" />
          </mxGeometry>
        </mxCell>
        <mxCell id="Aci5EPnE0_aUWg7GJw90-6" value="numero_dos&lt;div&gt;==&lt;/div&gt;&lt;div&gt;numero_uno&lt;/div&gt;" style="rhombus;whiteSpace=wrap;html=1;" vertex="1" parent="1">
          <mxGeometry x="1317" y="773" width="110" height="110" as="geometry" />
        </mxCell>
        <mxCell id="Aci5EPnE0_aUWg7GJw90-48" style="edgeStyle=orthogonalEdgeStyle;rounded=0;orthogonalLoop=1;jettySize=auto;html=1;exitX=0.5;exitY=1;exitDx=0;exitDy=0;entryX=0.5;entryY=1;entryDx=0;entryDy=0;strokeColor=default;endArrow=none;endFill=0;" edge="1" parent="1" source="Aci5EPnE0_aUWg7GJw90-9" target="Aci5EPnE0_aUWg7GJw90-16">
          <mxGeometry relative="1" as="geometry">
            <Array as="points">
              <mxPoint x="1192" y="1223" />
              <mxPoint x="1532" y="1223" />
            </Array>
          </mxGeometry>
        </mxCell>
        <mxCell id="Aci5EPnE0_aUWg7GJw90-9" value="intentos++" style="rounded=0;whiteSpace=wrap;html=1;" vertex="1" parent="1">
          <mxGeometry x="1132" y="1163" width="120" height="40" as="geometry" />
        </mxCell>
        <mxCell id="Aci5EPnE0_aUWg7GJw90-21" style="edgeStyle=orthogonalEdgeStyle;rounded=0;orthogonalLoop=1;jettySize=auto;html=1;exitX=1;exitY=0.5;exitDx=0;exitDy=0;entryX=0.5;entryY=0;entryDx=0;entryDy=0;" edge="1" parent="1" source="Aci5EPnE0_aUWg7GJw90-11" target="Aci5EPnE0_aUWg7GJw90-5">
          <mxGeometry relative="1" as="geometry" />
        </mxCell>
        <mxCell id="Aci5EPnE0_aUWg7GJw90-72" value="SI" style="edgeLabel;html=1;align=center;verticalAlign=middle;resizable=0;points=[];" vertex="1" connectable="0" parent="Aci5EPnE0_aUWg7GJw90-21">
          <mxGeometry x="-0.3908" y="-3" relative="1" as="geometry">
            <mxPoint as="offset" />
          </mxGeometry>
        </mxCell>
        <mxCell id="Aci5EPnE0_aUWg7GJw90-57" style="edgeStyle=orthogonalEdgeStyle;rounded=0;orthogonalLoop=1;jettySize=auto;html=1;exitX=0.5;exitY=1;exitDx=0;exitDy=0;entryX=0.5;entryY=0;entryDx=0;entryDy=0;" edge="1" parent="1" source="Aci5EPnE0_aUWg7GJw90-11" target="Aci5EPnE0_aUWg7GJw90-44">
          <mxGeometry relative="1" as="geometry" />
        </mxCell>
        <mxCell id="Aci5EPnE0_aUWg7GJw90-11" value="intentos&lt;div&gt;&amp;lt;&lt;/div&gt;&lt;div&gt;&lt;span style=&quot;text-align: left;&quot;&gt;intentos_max&amp;nbsp;&lt;/span&gt;&lt;/div&gt;" style="rhombus;whiteSpace=wrap;html=1;" vertex="1" parent="1">
          <mxGeometry x="764" y="523" width="125" height="120" as="geometry" />
        </mxCell>
        <mxCell id="Aci5EPnE0_aUWg7GJw90-13" value="numero_dos&amp;nbsp;&lt;div&gt;&amp;gt;&lt;/div&gt;&lt;div&gt;numero_uno&lt;/div&gt;" style="rhombus;whiteSpace=wrap;html=1;" vertex="1" parent="1">
          <mxGeometry x="1142" y="883" width="110" height="110" as="geometry" />
        </mxCell>
        <mxCell id="Aci5EPnE0_aUWg7GJw90-16" value="ganador = 1&lt;div&gt;&lt;div&gt;intentos = intentos_max&lt;/div&gt;&lt;/div&gt;" style="rounded=0;whiteSpace=wrap;html=1;align=left;spacingLeft=10;" vertex="1" parent="1">
          <mxGeometry x="1452" y="918" width="160" height="40" as="geometry" />
        </mxCell>
        <mxCell id="Aci5EPnE0_aUWg7GJw90-25" style="edgeStyle=orthogonalEdgeStyle;rounded=0;orthogonalLoop=1;jettySize=auto;html=1;exitX=1;exitY=0.5;exitDx=0;exitDy=0;entryX=0.5;entryY=0;entryDx=0;entryDy=0;" edge="1" parent="1" source="Aci5EPnE0_aUWg7GJw90-6" target="Aci5EPnE0_aUWg7GJw90-16">
          <mxGeometry relative="1" as="geometry">
            <mxPoint x="1532" y="893" as="targetPoint" />
          </mxGeometry>
        </mxCell>
        <mxCell id="Aci5EPnE0_aUWg7GJw90-75" value="SI" style="edgeLabel;html=1;align=center;verticalAlign=middle;resizable=0;points=[];" vertex="1" connectable="0" parent="Aci5EPnE0_aUWg7GJw90-25">
          <mxGeometry x="-0.5282" y="-1" relative="1" as="geometry">
            <mxPoint as="offset" />
          </mxGeometry>
        </mxCell>
        <mxCell id="Aci5EPnE0_aUWg7GJw90-35" style="edgeStyle=orthogonalEdgeStyle;rounded=0;orthogonalLoop=1;jettySize=auto;html=1;exitX=0;exitY=0;exitDx=78.75;exitDy=60;exitPerimeter=0;entryX=0.5;entryY=0;entryDx=0;entryDy=0;" edge="1" parent="1" source="Aci5EPnE0_aUWg7GJw90-30" target="Aci5EPnE0_aUWg7GJw90-9">
          <mxGeometry relative="1" as="geometry" />
        </mxCell>
        <mxCell id="Aci5EPnE0_aUWg7GJw90-30" value="&lt;span style=&quot;color: rgb(0, 0, 0); font-family: Helvetica; font-size: 12px; font-style: normal; font-variant-ligatures: normal; font-variant-caps: normal; font-weight: 400; letter-spacing: normal; orphans: 2; text-align: center; text-indent: 0px; text-transform: none; widows: 2; word-spacing: 0px; -webkit-text-stroke-width: 0px; white-space: normal; background-color: rgb(251, 251, 251); text-decoration-thickness: initial; text-decoration-style: initial; text-decoration-color: initial; display: inline !important; float: none;&quot;&gt;Casi... Tu número es menor&lt;/span&gt;" style="shape=display;whiteSpace=wrap;html=1;" vertex="1" parent="1">
          <mxGeometry x="992" y="983" width="150" height="60" as="geometry" />
        </mxCell>
        <mxCell id="Aci5EPnE0_aUWg7GJw90-36" style="edgeStyle=orthogonalEdgeStyle;rounded=0;orthogonalLoop=1;jettySize=auto;html=1;exitX=0;exitY=0;exitDx=72.5;exitDy=60;exitPerimeter=0;entryX=0.5;entryY=0;entryDx=0;entryDy=0;" edge="1" parent="1" source="Aci5EPnE0_aUWg7GJw90-32" target="Aci5EPnE0_aUWg7GJw90-9">
          <mxGeometry relative="1" as="geometry">
            <mxPoint x="1192" y="1143" as="targetPoint" />
          </mxGeometry>
        </mxCell>
        <mxCell id="Aci5EPnE0_aUWg7GJw90-32" value="&lt;span style=&quot;color: rgb(0, 0, 0); font-family: Helvetica; font-size: 12px; font-style: normal; font-variant-ligatures: normal; font-variant-caps: normal; font-weight: 400; letter-spacing: normal; orphans: 2; text-align: center; text-indent: 0px; text-transform: none; widows: 2; word-spacing: 0px; -webkit-text-stroke-width: 0px; white-space: normal; background-color: rgb(251, 251, 251); text-decoration-thickness: initial; text-decoration-style: initial; text-decoration-color: initial; display: inline !important; float: none;&quot;&gt;Casi... Tu número es mayor&lt;/span&gt;" style="shape=display;whiteSpace=wrap;html=1;" vertex="1" parent="1">
          <mxGeometry x="1232" y="983" width="140" height="60" as="geometry" />
        </mxCell>
        <mxCell id="Aci5EPnE0_aUWg7GJw90-33" style="edgeStyle=orthogonalEdgeStyle;rounded=0;orthogonalLoop=1;jettySize=auto;html=1;exitX=1;exitY=0.5;exitDx=0;exitDy=0;entryX=0;entryY=0;entryDx=72.5;entryDy=0;entryPerimeter=0;" edge="1" parent="1" source="Aci5EPnE0_aUWg7GJw90-13" target="Aci5EPnE0_aUWg7GJw90-32">
          <mxGeometry relative="1" as="geometry" />
        </mxCell>
        <mxCell id="Aci5EPnE0_aUWg7GJw90-77" value="SI" style="edgeLabel;html=1;align=center;verticalAlign=middle;resizable=0;points=[];" vertex="1" connectable="0" parent="Aci5EPnE0_aUWg7GJw90-33">
          <mxGeometry x="-0.4725" y="-1" relative="1" as="geometry">
            <mxPoint as="offset" />
          </mxGeometry>
        </mxCell>
        <mxCell id="Aci5EPnE0_aUWg7GJw90-34" style="edgeStyle=orthogonalEdgeStyle;rounded=0;orthogonalLoop=1;jettySize=auto;html=1;exitX=0;exitY=0.5;exitDx=0;exitDy=0;entryX=0;entryY=0;entryDx=78.75;entryDy=0;entryPerimeter=0;" edge="1" parent="1" source="Aci5EPnE0_aUWg7GJw90-13" target="Aci5EPnE0_aUWg7GJw90-30">
          <mxGeometry relative="1" as="geometry" />
        </mxCell>
        <mxCell id="Aci5EPnE0_aUWg7GJw90-78" value="NO" style="edgeLabel;html=1;align=center;verticalAlign=middle;resizable=0;points=[];" vertex="1" connectable="0" parent="Aci5EPnE0_aUWg7GJw90-34">
          <mxGeometry x="-0.4399" y="4" relative="1" as="geometry">
            <mxPoint as="offset" />
          </mxGeometry>
        </mxCell>
        <mxCell id="Aci5EPnE0_aUWg7GJw90-64" style="edgeStyle=orthogonalEdgeStyle;rounded=0;orthogonalLoop=1;jettySize=auto;html=1;exitX=1;exitY=0.5;exitDx=0;exitDy=0;entryX=0.5;entryY=0;entryDx=0;entryDy=0;" edge="1" parent="1" source="Aci5EPnE0_aUWg7GJw90-41" target="Aci5EPnE0_aUWg7GJw90-4">
          <mxGeometry relative="1" as="geometry" />
        </mxCell>
        <mxCell id="Aci5EPnE0_aUWg7GJw90-41" value="jugar&lt;div&gt;=&lt;/div&gt;&lt;div&gt;1&lt;/div&gt;" style="rhombus;whiteSpace=wrap;html=1;" vertex="1" parent="1">
          <mxGeometry x="545" y="230" width="80" height="80" as="geometry" />
        </mxCell>
        <mxCell id="Aci5EPnE0_aUWg7GJw90-44" value="ganador&lt;div&gt;=&lt;/div&gt;&lt;div&gt;1&lt;/div&gt;" style="rhombus;whiteSpace=wrap;html=1;" vertex="1" parent="1">
          <mxGeometry x="779" y="713" width="95" height="90" as="geometry" />
        </mxCell>
        <mxCell id="Aci5EPnE0_aUWg7GJw90-53" style="edgeStyle=orthogonalEdgeStyle;rounded=0;orthogonalLoop=1;jettySize=auto;html=1;exitX=0.5;exitY=1;exitDx=0;exitDy=0;strokeColor=default;endArrow=classic;endFill=1;entryX=0.5;entryY=0;entryDx=0;entryDy=0;" edge="1" parent="1" target="Aci5EPnE0_aUWg7GJw90-11">
          <mxGeometry relative="1" as="geometry">
            <mxPoint x="1381.54" y="1223" as="sourcePoint" />
            <mxPoint x="794" y="523" as="targetPoint" />
            <Array as="points">
              <mxPoint x="1382" y="1273" />
              <mxPoint x="1632" y="1273" />
              <mxPoint x="1632" y="523" />
            </Array>
          </mxGeometry>
        </mxCell>
        <mxCell id="Aci5EPnE0_aUWg7GJw90-85" style="edgeStyle=orthogonalEdgeStyle;rounded=0;orthogonalLoop=1;jettySize=auto;html=1;exitX=0;exitY=0;exitDx=78.75;exitDy=60;exitPerimeter=0;entryX=0.5;entryY=0;entryDx=0;entryDy=0;" edge="1" parent="1" source="Aci5EPnE0_aUWg7GJw90-54" target="Aci5EPnE0_aUWg7GJw90-83">
          <mxGeometry relative="1" as="geometry" />
        </mxCell>
        <mxCell id="Aci5EPnE0_aUWg7GJw90-54" value="&lt;span style=&quot;color: rgb(0, 0, 0); font-family: Helvetica; font-size: 12px; font-style: normal; font-variant-ligatures: normal; font-variant-caps: normal; font-weight: 400; letter-spacing: normal; orphans: 2; text-align: center; text-indent: 0px; text-transform: none; widows: 2; word-spacing: 0px; -webkit-text-stroke-width: 0px; white-space: normal; background-color: rgb(251, 251, 251); text-decoration-thickness: initial; text-decoration-style: initial; text-decoration-color: initial; display: inline !important; float: none;&quot;&gt;Ganador!&lt;/span&gt;" style="shape=display;whiteSpace=wrap;html=1;" vertex="1" parent="1">
          <mxGeometry x="889" y="813" width="150" height="60" as="geometry" />
        </mxCell>
        <mxCell id="Aci5EPnE0_aUWg7GJw90-84" style="edgeStyle=orthogonalEdgeStyle;rounded=0;orthogonalLoop=1;jettySize=auto;html=1;exitX=0;exitY=0;exitDx=66.25;exitDy=60;exitPerimeter=0;entryX=0.5;entryY=0;entryDx=0;entryDy=0;" edge="1" parent="1" source="Aci5EPnE0_aUWg7GJw90-55" target="Aci5EPnE0_aUWg7GJw90-83">
          <mxGeometry relative="1" as="geometry" />
        </mxCell>
        <mxCell id="Aci5EPnE0_aUWg7GJw90-55" value="Perdedor" style="shape=display;whiteSpace=wrap;html=1;" vertex="1" parent="1">
          <mxGeometry x="610" y="813" width="130" height="60" as="geometry" />
        </mxCell>
        <mxCell id="Aci5EPnE0_aUWg7GJw90-67" style="edgeStyle=orthogonalEdgeStyle;rounded=0;orthogonalLoop=1;jettySize=auto;html=1;exitX=0.5;exitY=1;exitDx=0;exitDy=0;" edge="1" parent="1" source="Aci5EPnE0_aUWg7GJw90-56">
          <mxGeometry relative="1" as="geometry">
            <mxPoint x="580" y="230" as="targetPoint" />
            <Array as="points">
              <mxPoint x="824" y="1295" />
              <mxPoint x="1690" y="1295" />
              <mxPoint x="1690" y="230" />
              <mxPoint x="585" y="230" />
            </Array>
          </mxGeometry>
        </mxCell>
        <mxCell id="Aci5EPnE0_aUWg7GJw90-56" value="jugar" style="shape=parallelogram;perimeter=parallelogramPerimeter;whiteSpace=wrap;html=1;fixedSize=1;" vertex="1" parent="1">
          <mxGeometry x="766.5" y="1080" width="120" height="60" as="geometry" />
        </mxCell>
        <mxCell id="Aci5EPnE0_aUWg7GJw90-58" style="edgeStyle=orthogonalEdgeStyle;rounded=0;orthogonalLoop=1;jettySize=auto;html=1;exitX=1;exitY=0.5;exitDx=0;exitDy=0;entryX=0;entryY=0;entryDx=78.75;entryDy=0;entryPerimeter=0;" edge="1" parent="1" source="Aci5EPnE0_aUWg7GJw90-44" target="Aci5EPnE0_aUWg7GJw90-54">
          <mxGeometry relative="1" as="geometry" />
        </mxCell>
        <mxCell id="Aci5EPnE0_aUWg7GJw90-73" value="SI" style="edgeLabel;html=1;align=center;verticalAlign=middle;resizable=0;points=[];" vertex="1" connectable="0" parent="Aci5EPnE0_aUWg7GJw90-58">
          <mxGeometry x="-0.4757" y="-1" relative="1" as="geometry">
            <mxPoint as="offset" />
          </mxGeometry>
        </mxCell>
        <mxCell id="Aci5EPnE0_aUWg7GJw90-59" style="edgeStyle=orthogonalEdgeStyle;rounded=0;orthogonalLoop=1;jettySize=auto;html=1;exitX=0;exitY=0.5;exitDx=0;exitDy=0;entryX=0;entryY=0;entryDx=66.25;entryDy=0;entryPerimeter=0;" edge="1" parent="1" source="Aci5EPnE0_aUWg7GJw90-44" target="Aci5EPnE0_aUWg7GJw90-55">
          <mxGeometry relative="1" as="geometry">
            <mxPoint x="680.25" y="813.0000000000002" as="targetPoint" />
          </mxGeometry>
        </mxCell>
        <mxCell id="Aci5EPnE0_aUWg7GJw90-74" value="NO" style="edgeLabel;html=1;align=center;verticalAlign=middle;resizable=0;points=[];" vertex="1" connectable="0" parent="Aci5EPnE0_aUWg7GJw90-59">
          <mxGeometry x="-0.4319" y="-2" relative="1" as="geometry">
            <mxPoint as="offset" />
          </mxGeometry>
        </mxCell>
        <mxCell id="Aci5EPnE0_aUWg7GJw90-71" style="edgeStyle=orthogonalEdgeStyle;rounded=0;orthogonalLoop=1;jettySize=auto;html=1;exitX=0;exitY=0;exitDx=40;exitDy=40;exitPerimeter=0;entryX=0.5;entryY=0;entryDx=0;entryDy=0;" edge="1" parent="1" source="Aci5EPnE0_aUWg7GJw90-68" target="Aci5EPnE0_aUWg7GJw90-69">
          <mxGeometry relative="1" as="geometry" />
        </mxCell>
        <mxCell id="Aci5EPnE0_aUWg7GJw90-68" value="Gracias" style="shape=display;whiteSpace=wrap;html=1;" vertex="1" parent="1">
          <mxGeometry x="545" y="340" width="80" height="40" as="geometry" />
        </mxCell>
        <mxCell id="Aci5EPnE0_aUWg7GJw90-69" value="FIN" style="ellipse;whiteSpace=wrap;html=1;" vertex="1" parent="1">
          <mxGeometry x="542.5" y="430" width="85" height="40" as="geometry" />
        </mxCell>
        <mxCell id="Aci5EPnE0_aUWg7GJw90-70" style="edgeStyle=orthogonalEdgeStyle;rounded=0;orthogonalLoop=1;jettySize=auto;html=1;exitX=0.5;exitY=1;exitDx=0;exitDy=0;entryX=0;entryY=0;entryDx=40;entryDy=0;entryPerimeter=0;" edge="1" parent="1" source="Aci5EPnE0_aUWg7GJw90-41" target="Aci5EPnE0_aUWg7GJw90-68">
          <mxGeometry relative="1" as="geometry" />
        </mxCell>
        <mxCell id="Aci5EPnE0_aUWg7GJw90-81" style="edgeStyle=orthogonalEdgeStyle;rounded=0;orthogonalLoop=1;jettySize=auto;html=1;exitX=1;exitY=0.5;exitDx=0;exitDy=0;entryX=0.5;entryY=0;entryDx=0;entryDy=0;" edge="1" parent="1" source="Aci5EPnE0_aUWg7GJw90-79" target="Aci5EPnE0_aUWg7GJw90-4">
          <mxGeometry relative="1" as="geometry">
            <Array as="points">
              <mxPoint x="920" y="425" />
              <mxPoint x="920" y="260" />
              <mxPoint x="827" y="260" />
            </Array>
          </mxGeometry>
        </mxCell>
        <mxCell id="Aci5EPnE0_aUWg7GJw90-82" style="edgeStyle=orthogonalEdgeStyle;rounded=0;orthogonalLoop=1;jettySize=auto;html=1;exitX=0.5;exitY=1;exitDx=0;exitDy=0;entryX=0.5;entryY=0;entryDx=0;entryDy=0;" edge="1" parent="1" source="Aci5EPnE0_aUWg7GJw90-79" target="Aci5EPnE0_aUWg7GJw90-11">
          <mxGeometry relative="1" as="geometry" />
        </mxCell>
        <mxCell id="Aci5EPnE0_aUWg7GJw90-79" value="numero_uno &amp;lt; 1&lt;div&gt;or&lt;/div&gt;&lt;div&gt;numero_uno &amp;gt; 10&lt;/div&gt;" style="rhombus;whiteSpace=wrap;html=1;" vertex="1" parent="1">
          <mxGeometry x="749" y="360" width="150" height="130" as="geometry" />
        </mxCell>
        <mxCell id="Aci5EPnE0_aUWg7GJw90-86" style="edgeStyle=orthogonalEdgeStyle;rounded=0;orthogonalLoop=1;jettySize=auto;html=1;exitX=0.5;exitY=1;exitDx=0;exitDy=0;entryX=0.5;entryY=0;entryDx=0;entryDy=0;" edge="1" parent="1" source="Aci5EPnE0_aUWg7GJw90-83" target="Aci5EPnE0_aUWg7GJw90-56">
          <mxGeometry relative="1" as="geometry" />
        </mxCell>
        <mxCell id="Aci5EPnE0_aUWg7GJw90-83" value="intentos = 0&lt;div&gt;ganador = 0&lt;/div&gt;" style="rounded=0;whiteSpace=wrap;html=1;" vertex="1" parent="1">
          <mxGeometry x="766.5" y="958" width="120" height="60" as="geometry" />
        </mxCell>
      </root>
    </mxGraphModel>
  </diagram>
</mxfile>
